PathFileType	4	(X/Y/Z)	T1_P1_Vision_Movement_3_0-659.trc
DataRate	CameraRate	NumFrames	NumMarkers	Units	OrigDataRate	OrigDataStartFrame	OrigNumFrames
60	60	7	27	m	60	0	659
Frame#	Time	RHip			RKnee			RAnkle			RBigToe			RSmallToe			RHeel			LHip			LKnee			LAnkle			LBigToe			LSmallToe			LHeel			Neck			Head			Nose			RShoulder			RElbow			RWrist			RThumb			RIndex			RPinky			LShoulder			LElbow			LWrist			LThumb			LIndex			LPinky		
		X1	Y1	Z1	X2	Y2	Z2	X3	Y3	Z3	X4	Y4	Z4	X5	Y5	Z5	X6	Y6	Z6	X7	Y7	Z7	X8	Y8	Z8	X9	Y9	Z9	X10	Y10	Z10	X11	Y11	Z11	X12	Y12	Z12	X13	Y13	Z13	X14	Y14	Z14	X15	Y15	Z15	X16	Y16	Z16	X17	Y17	Z17	X18	Y18	Z18	X19	Y19	Z19	X20	Y20	Z20	X21	Y21	Z21	X22	Y22	Z22	X23	Y23	Z23	X24	Y24	Z24	X25	Y25	Z25	X26	Y26	Z26	X27	Y27	Z27
1	0.0166666666666666	-112.51180852798163	3878.8831100122943	-626.1117367666691	262.5874516369168	4091.322531638688	-652.9614769443933	606.1995446667331	4302.019720566077	-702.122080541049	689.1689864664162	4204.045834033892	-650.9378854428822	679.8190583420063	4172.293855570953	-692.6141788766276	651.3796447945426	4351.479746359252	-707.3494583949049	-135.25426881580893	4043.8306161691517	-500.5680453485137	214.64254607278428	4164.101180122793	-490.6530317185118	573.0021337671512	4339.587259036457	-510.1975887423061	637.4937724655149	4214.829269362219	-400.2710903972343	613.2105795234688	4251.737545054452	-375.05248522807983	625.6338697851501	4417.590376257309	-547.6064274343471	-699.6521432520764	3792.0434547891064	-584.5295464225397	-930.0781699830131	3599.7957641654734	-471.2607494693408	-790.1873281089859	3639.9015406256553	-448.5662079309678	-593.551602875688	3756.216344131975	-712.3075120234407	-327.84531765300125	3641.000602674172	-691.5326157976074	-488.451363796962	3597.5925364840477	-530.1373830643944	-586.7304185096475	3593.5059628640097	-428.7982437545977	-590.5214628147701	3618.2131006029904	-427.9271333770704	-558.4638772750579	3604.4033462425873	-424.48662527846176	-641.7891631675855	3904.1600468049824	-488.19733972318693	-410.1784391673587	4117.835278942098	-453.58493685614206	-164.56765312044718	4120.844447898346	-371.6462729894629	-44.63278409068198	4108.966571218907	-373.56018202826846	-0.5124021608848485	4156.294972695844	-366.25734619213375	-26.787526960033347	4156.59507981313	-343.4797507501225
2	0.0333333333333333	-106.08760703764639	3881.9211294707725	-627.0933046894295	254.57871857962286	4069.511841498944	-645.7680739475106	604.1486254477416	4279.879346864764	-692.0893952768346	687.0294272704799	4184.705258198302	-646.408352042441	677.6970932961185	4153.291087545102	-688.0324922353954	647.2389375659136	4330.312898654118	-701.7602117278517	-133.43099814633925	4048.6245124414354	-501.8397556096857	215.79182685940654	4164.555456928881	-490.7450962865364	571.1503385567404	4338.615321543998	-506.3703881679685	641.6097721066773	4218.243164101336	-402.0140756504928	620.4759929598106	4275.034904352414	-380.18206962432157	621.146232385053	4395.15702425816	-539.4871856787072	-696.5906319051961	3792.466689316817	-584.0311488447379	-926.8665571978639	3601.5712942698383	-471.7467829893486	-788.8191680176104	3640.6670962796584	-448.6096837505507	-591.3750343023127	3754.0365482783022	-711.4960415992447	-324.0801321728663	3637.310841214551	-690.8273539597667	-479.83251903043924	3616.5449454315676	-536.5447204235587	-584.0978181795608	3608.8794225544207	-431.6059091308099	-583.8204406102087	3620.695000268752	-428.38909132637997	-556.9830504403571	3620.045641233706	-427.5762232117927	-635.7773399990558	3906.2457480694293	-487.41187589705817	-408.20415422940664	4116.095499643283	-452.6890472674286	-164.0953311507651	4114.5052176644695	-370.38187918483254	-44.859706172751444	4109.245292840063	-371.67506932666134	-3.4689077271999245	4154.736857854949	-363.0487560764697	-28.453540289353697	4155.528946849723	-341.16507617409354
3	0.05	-101.79667994561217	3881.189044404786	-627.1699511979921	250.10100900965517	4045.436819440407	-639.8843896900618	605.4732142864189	4268.024886262075	-687.3076964657014	686.6003698312657	4173.463708238243	-643.9596999163251	676.5135783689773	4139.033589960642	-683.6473537918266	644.6452365698339	4317.397336384314	-698.1848813749458	-131.02764017307112	4054.5552392447316	-503.40959174769165	218.00964410821766	4165.6330902852005	-491.29509907189276	571.02468901784	4338.006389005375	-502.7036180523023	644.1884911520465	4221.516678882224	-402.2212970777009	626.0987831190974	4290.346171014329	-383.7145065941174	620.7234541137157	4381.428178367847	-533.170113698318	-693.3829581606791	3793.2714651039605	-583.9336362548117	-923.3784594771284	3603.205101272567	-472.11948936109474	-786.1262100024929	3644.018448383918	-449.19217432418253	-589.1607702434992	3750.1647692445586	-710.1582220222165	-320.51215366565134	3635.759205406439	-690.432288965243	-472.7927106539038	3625.803646932835	-539.0780861705143	-582.0519280944546	3618.2682308740746	-433.1598037063863	-578.7175435961835	3622.6962078822676	-428.8230604777148	-553.6923169963105	3630.5905991477725	-429.5785285800242	-632.3027368640691	3909.707194648561	-487.4388918018715	-405.65022120492677	4116.465495613369	-451.89132034661986	-162.8731170742024	4115.0423096893865	-370.23945174160843	-42.9590969001947	4110.883719655579	-370.50503542251886	-2.7500879313930646	4155.045730297679	-360.68312579506073	-27.699814602498396	4155.301123220126	-338.8769350121655
4	0.0666666666666666	-99.37190172702387	3875.284603402838	-626.0615478993302	249.50312424062744	4017.005672055543	-634.3997731474999	609.133453747885	4266.3372462045945	-687.6055261220471	687.2401784170131	4170.676641171786	-643.5391463920754	675.147776322371	4127.024437390927	-678.0080643566321	642.8107407690622	4312.740164202548	-696.2752209240326	-127.08978124139699	4059.225407626067	-504.7712363920093	221.0004732746925	4167.13617084613	-492.2996102883562	572.1907111396936	4337.293253028902	-499.20528815318596	644.950473540818	4224.083277877004	-400.15808316207267	629.5652514398995	4296.548296095158	-385.34676473199505	623.8878925921042	4375.511764755638	-527.6461357647659	-689.5582180306741	3794.8152078370094	-584.7613923265591	-919.6757141645317	3604.6952788326207	-472.38636537502566	-780.9305690389493	3650.193756357163	-450.36944838654813	-587.5567541658803	3745.840139816061	-708.9714871849653	-316.9605734208456	3633.87526644317	-689.5741223387366	-467.03818702665717	3624.0209738818903	-537.6674195373296	-580.353864654108	3621.293402555572	-433.03505435853185	-575.5409727370799	3623.9367110106373	-428.7006058519322	-548.1211970395238	3635.466656085894	-430.30808564673623	-631.4253568361856	3915.5460666228223	-488.20919274556525	-402.7463242073908	4122.613140948193	-452.4732757295966	-160.58386335696665	4120.778165248172	-370.93463645017664	-38.311374357903375	4114.00560670798	-370.4606153294591	1.8930327498045956	4157.569045119035	-360.3739961583649	-23.936726476780734	4156.0467235768265	-337.1016470399138
5	0.0833333333333333	-97.10387216242371	3867.056979422983	-624.3704083490145	251.55269039529833	3987.360656095034	-627.7499976770613	611.7859654092059	4267.926325011448	-688.8746835996785	687.3754332782496	4172.23189552214	-643.8641058399525	672.5836749950626	4114.892950781883	-671.1196831241839	640.5813845614659	4311.729251741098	-694.860407129133	-121.9386712892391	4059.3495158505552	-504.86564779018	223.89194217855086	4167.869553892424	-492.83461170256317	573.8873294536334	4336.507046575153	-496.170005923443	644.450343590422	4223.647900058103	-396.5046353882031	631.0796786860844	4296.575052115699	-385.5565315150474	627.1844873767943	4372.134926950726	-521.4007127928771	-684.6401591636156	3797.2002576280697	-586.6889240210407	-915.789976747425	3605.806716407739	-472.3608056296974	-772.0025133980876	3656.15941514955	-451.50141603535235	-586.8230549831193	3743.35458021282	-709.3940958136299	-313.81481863206034	3631.47817255627	-688.419154583746	-461.76654130031216	3618.9343685778267	-535.3639536751707	-578.4192639177755	3621.4249396612795	-431.61246779142044	-573.5117166584664	3624.5288852083554	-426.95873148678834	-541.2009507548487	3636.9593106108996	-430.0446834490044	-631.4254253330106	3922.71055278472	-488.6143776165531	-400.476171960663	4137.084963728489	-456.3603782930425	-157.3804714862367	4126.424798351459	-371.6214175639334	-32.31777559891195	4117.501457031095	-371.40635113009193	7.938170499261604	4161.514951377784	-362.72526478809306	-18.864479731476237	4157.154495382298	-336.08536671915874
6	0.1	-93.5290988418736	3861.1956710610402	-622.7724312551347	256.1045745460815	3962.0084251673866	-619.502494096407	612.7772162457713	4268.903340736952	-688.878731909312	687.7008038801039	4176.570667247481	-644.5430682798346	670.8932490062132	4107.951105885611	-666.4224637480526	639.3636751056425	4313.062132683395	-694.6659209630002	-116.62040175962498	4055.16272815649	-502.88158750006784	226.49019287726327	4165.9936792799745	-490.8815862085663	576.3112307281673	4337.201250946773	-494.45580873926843	643.1690646099366	4217.648557199033	-392.7165884372109	631.1103521614149	4291.8393572994655	-384.6774546020546	628.924863781506	4372.929999424248	-516.9096201308088	-678.2796924599014	3800.24436387073	-588.8656533951747	-910.923862040794	3606.057174807265	-471.4036979829309	-759.2541241854371	3659.422736750741	-451.9418802776538	-586.0251552861199	3743.90357901453	-712.3725428867095	-311.7205177305747	3633.17495971468	-688.5880143723766	-457.22035801397317	3619.5110425466282	-535.0205109130786	-575.8758623302228	3621.5395492293887	-429.7871953502313	-571.6200582166646	3624.647996102615	-422.92116667255044	-533.2611500742795	3636.8334330004463	-428.5830129449889	-631.1215148614613	3928.777720155424	-488.1405347675458	-399.7303321787918	4155.563367056236	-462.8927923255303	-153.4105018435289	4129.159348962857	-371.902321375858	-26.60195792733763	4120.370273367705	-372.69648991337436	13.43198751245922	4165.8741236601445	-366.4983158075603	-14.288939554210646	4158.258803263305	-335.7052643756549
7	0.1166666666666666	-87.97539552310793	3858.7600610339805	-620.7169983431203	263.50227785991643	3941.351113062052	-610.2079706022582	614.1015813728276	4270.760044785459	-689.2578307667169	690.3825033798242	4183.415756716974	-645.7939036871755	672.9210758985171	4110.749195136386	-666.5558499992173	641.3901222052726	4319.424619436227	-697.5701948018593	-110.99512820365945	4049.1651502535738	-498.6776813630072	229.00407476215528	4160.019934135735	-484.37314971854096	579.3768582729296	4341.497952707452	-494.83227420318667	641.4400519743018	4207.246216035445	-389.47444884511947	630.4105926054182	4282.558283473919	-382.96390518513226	630.3738228805416	4384.321747077839	-518.8668071133808	-670.0483725391421	3803.7887742558846	-590.0926614347215	-904.1052702837931	3605.796457426787	-469.1901185936377	-745.1478379577699	3661.2459533514466	-451.56275924959687	-583.7852459038075	3747.4882492995066	-717.0769517723353	-310.28586780011943	3640.2091031575474	-690.5810726285713	-453.96293519289094	3626.9649978415523	-536.9308523896008	-572.6452790135489	3622.6364312193728	-428.4351698667797	-569.0327866751172	3624.8125867463496	-417.8226400038292	-522.8726603340544	3636.3036119314597	-425.3962479627871	-630.3194948570006	3931.039227371205	-486.73304643654467	-400.1118998219029	4169.12079967243	-468.1241096436272	-148.7664118801889	4127.6734027746115	-371.623241609029	-21.185474814976875	4122.585184299114	-373.24087467552187	18.088968145388932	4169.0994059126515	-368.743932787153	-10.527779039235826	4159.689773409792	-336.1981545343952
